<svg width="80" height="80" viewBox="0 0 80 80" xmlns="http://www.w3.org/2000/svg">
  <defs>
    <radialGradient id="logoGradient" cx="50%" cy="50%" r="50%">
      <stop offset="0%" style="stop-color:#FFD700;stop-opacity:1" />
      <stop offset="100%" style="stop-color:#FF6900;stop-opacity:1" />
    </radialGradient>
  </defs>
  
  <!-- 背景圆形 -->
  <circle cx="40" cy="40" r="38" fill="url(#logoGradient)" stroke="#ffffff" stroke-width="2"/>
  
  <!-- 八卦符号 -->
  <g transform="translate(40,40)">
    <!-- 阴阳符号 -->
    <circle cx="0" cy="0" r="25" fill="#ffffff" opacity="0.9"/>
    <path d="M 0,-25 A 25,25 0 0,1 0,25 A 12.5,12.5 0 0,1 0,0 A 12.5,12.5 0 0,0 0,-25 Z" fill="#2f3542"/>
    <circle cx="0" cy="-12.5" r="6" fill="#ffffff"/>
    <circle cx="0" cy="12.5" r="6" fill="#2f3542"/>
  </g>
  
  <!-- 装饰性星星 -->
  <g fill="#ffffff" opacity="0.8">
    <polygon points="15,15 17,21 23,21 18,25 20,31 15,27 10,31 12,25 7,21 13,21" transform="scale(0.3)"/>
    <polygon points="65,15 67,21 73,21 68,25 70,31 65,27 60,31 62,25 57,21 63,21" transform="scale(0.3)"/>
    <polygon points="15,65 17,71 23,71 18,75 20,81 15,77 10,81 12,75 7,71 13,71" transform="scale(0.3)"/>
    <polygon points="65,65 67,71 73,71 68,75 70,81 65,77 60,81 62,75 57,71 63,71" transform="scale(0.3)"/>
  </g>
</svg>